<svg xmlns="http://www.w3.org/2000/svg" width="23" height="26.286" viewBox="0 0 23 26.286">
  <path id="Icon_awesome-book" data-name="Icon awesome-book" d="M23,18.482V1.232A1.229,1.229,0,0,0,21.768,0H4.929A4.93,4.93,0,0,0,0,4.929V21.357a4.93,4.93,0,0,0,4.929,4.929H21.768A1.229,1.229,0,0,0,23,25.054v-.821a1.242,1.242,0,0,0-.457-.96,11.449,11.449,0,0,1,0-3.835A1.223,1.223,0,0,0,23,18.482ZM6.571,6.879a.309.309,0,0,1,.308-.308H17.763a.309.309,0,0,1,.308.308V7.906a.309.309,0,0,1-.308.308H6.879a.309.309,0,0,1-.308-.308Zm0,3.286a.309.309,0,0,1,.308-.308H17.763a.309.309,0,0,1,.308.308v1.027a.309.309,0,0,1-.308.308H6.879a.309.309,0,0,1-.308-.308ZM19.581,23H4.929a1.643,1.643,0,1,1,0-3.286H19.581A18.482,18.482,0,0,0,19.581,23Z"/>
</svg>
