<svg xmlns="http://www.w3.org/2000/svg" width="22.507" height="29.257" viewBox="0 0 22.507 29.257">
  <path id="Icon_ionic-md-flame" data-name="Icon ionic-md-flame" d="M27.654,15.616l-.014.731c-.056.823-.555,3.052-1.554,3.846a9.833,9.833,0,0,0,.717-5.815C25.425,7.523,20.215,4.613,13.57,3.516l-1.209-.155c2.777,3.319,3.945,5.745,3.495,8.212a8.392,8.392,0,0,1-.984,2.222,10.8,10.8,0,0,0,.141-2.018,3.733,3.733,0,0,0-1.266-2.784,4.625,4.625,0,0,1-.64,3.354c-1.737,2.967-6,4.064-6.356,9.548v.267a10,10,0,0,0,4.83,8.789,6.093,6.093,0,0,1-.4-4.233,8.134,8.134,0,0,0,1.751,3.642,4.918,4.918,0,0,0,2.327,1.751,9.283,9.283,0,0,0,3.368.506c3.923,0,6.427-1.273,8.374-3.551s2.257-4.781,2.257-7.481A10.48,10.48,0,0,0,27.654,15.616Z" transform="translate(-6.75 -3.361)"/>
</svg>
