<svg xmlns="http://www.w3.org/2000/svg" width="512" height="512" viewBox="0 0 512 512">
  <g id="instagram_icon" transform="translate(-3.7 -5.2)">
    <circle id="Ellipse_5" data-name="Ellipse 5" cx="37.31" cy="37.31" r="37.31" transform="translate(220.221 226.055)"/>
    <path id="Path_8" data-name="Path 8" d="M155.517,19.2H62.242c-13.567,0-25.439,4.24-33.07,11.871S17.3,50.574,17.3,64.142v93.275c0,13.567,4.24,25.439,12.719,33.918,8.48,7.632,19.5,11.871,33.07,11.871h92.427c13.567,0,25.439-4.24,33.07-11.871,8.48-7.632,12.719-19.5,12.719-33.07V64.99c0-13.567-4.24-24.591-11.871-33.07C180.956,23.44,169.932,19.2,155.517,19.2ZM108.879,168.44a57.661,57.661,0,1,1,0-115.322c31.374,0,58.509,25.439,58.509,57.661S141.1,168.44,108.879,168.44Zm60.2-104.3a13.567,13.567,0,1,1,13.567-13.567A13.394,13.394,0,0,1,169.084,64.142Z" transform="translate(148.604 152.979)"/>
    <path id="Path_9" data-name="Path 9" d="M259.7,5.2c-141.526,0-256,114.472-256,256s114.47,256,256,256,256-114.471,256-256C516.734,119.672,401.223,5.2,259.7,5.2ZM396.02,321.558c0,23.935-8.325,44.748-22.894,59.317s-35.382,21.854-58.276,21.854H201.421c-22.894,0-43.707-7.285-58.276-21.854-15.61-14.569-22.894-35.382-22.894-59.317V207.086c0-47.87,32.26-81.171,81.17-81.171h114.47c23.935,0,43.707,8.325,58.276,22.894s21.853,34.341,21.853,58.276V321.558Z" transform="translate(0 0)"/>
  </g>
</svg>
