<svg xmlns="http://www.w3.org/2000/svg" width="20" height="29.099" viewBox="0 0 20 29.099">
  <path id="Icon_awesome-question" data-name="Icon awesome-question" d="M11.827,0A11.012,11.012,0,0,0,2.045,5.173a1.365,1.365,0,0,0,.294,1.868L4.791,8.9a1.364,1.364,0,0,0,1.89-.236c1.424-1.783,2.48-2.81,4.7-2.81,1.748,0,3.911,1.125,3.911,2.821,0,1.282-1.058,1.94-2.784,2.908C10.5,12.712,7.834,14.116,7.834,17.63v.556A1.364,1.364,0,0,0,9.2,19.551h4.119a1.364,1.364,0,0,0,1.364-1.364v-.328c0-2.436,7.119-2.537,7.119-9.129C21.8,3.766,16.651,0,11.827,0Zm-.57,21.225a3.937,3.937,0,1,0,3.937,3.937A3.941,3.941,0,0,0,11.257,21.225Z" transform="translate(-1.8)"/>
</svg>
