<svg xmlns="http://www.w3.org/2000/svg" width="512" height="512" viewBox="0 0 512 512">
  <path id="Dark_Blue" d="M256,0C397.29,0,512,114.71,512,256S397.29,512,256,512,0,397.29,0,256,114.71,0,256,0ZM209.152,391.04c113.536,0,175.616-94.08,175.616-175.616,0-2.688,0-5.376-.128-7.936a126.449,126.449,0,0,0,30.848-32,125.275,125.275,0,0,1-35.456,9.728,61.687,61.687,0,0,0,27.136-34.176A124.989,124.989,0,0,1,368,166.016a61.757,61.757,0,0,0-106.752,42.24,56.562,56.562,0,0,0,1.664,14.08A175.1,175.1,0,0,1,135.68,157.824a61.692,61.692,0,0,0,19.2,82.3,60.631,60.631,0,0,1-27.9-7.68v.768a61.789,61.789,0,0,0,49.536,60.544,61.529,61.529,0,0,1-16.256,2.176,58.929,58.929,0,0,1-11.648-1.152,61.628,61.628,0,0,0,57.6,42.88,124.072,124.072,0,0,1-76.672,26.368,112.238,112.238,0,0,1-14.72-.9A171.963,171.963,0,0,0,209.152,391.04Z" fill-rule="evenodd"/>
</svg>
