<svg xmlns="http://www.w3.org/2000/svg" width="512" height="514.461" viewBox="0 0 512 514.461">
  <path id="WhatsApp-Logo" d="M373.3,307.064c-6.37-3.188-37.687-18.6-43.526-20.724s-10.084-3.187-14.331,3.188-16.454,20.725-20.17,24.976-7.431,4.785-13.8,1.594-26.9-9.913-51.225-31.616c-18.935-16.89-31.72-37.749-35.435-44.126s-.4-9.824,2.792-13c2.867-2.854,6.371-7.44,9.555-11.16s4.247-6.377,6.37-10.626,1.062-7.971-.532-11.159-14.33-34.542-19.638-47.3c-5.171-12.419-10.422-10.737-14.332-10.934-3.711-.184-7.963-.223-12.208-.223a23.407,23.407,0,0,0-16.987,7.969c-5.838,6.377-22.293,21.789-22.293,53.14s22.824,61.642,26.009,65.894,44.916,68.59,108.816,96.181a365.674,365.674,0,0,0,36.312,13.418c15.259,4.849,29.145,4.165,40.121,2.524,12.238-1.827,37.686-15.408,42.995-30.286S387.1,317.161,385.5,314.5s-5.838-4.251-12.208-7.44M257.071,465.757h-.086A211.569,211.569,0,0,1,149.14,436.222L141.4,431.63,61.208,452.667l21.4-78.19-5.037-8.017A211.368,211.368,0,0,1,45.179,253.7c.047-116.825,95.1-211.87,211.976-211.87a211.92,211.92,0,0,1,211.8,212.041c-.048,116.834-95.1,211.889-211.886,211.889M437.4,73.533A253.277,253.277,0,0,0,257.068-1.23C116.554-1.23,2.193,113.124,2.136,253.681a254.473,254.473,0,0,0,34.03,127.448L0,513.231l135.141-35.45A254.7,254.7,0,0,0,256.967,508.81h.105c140.5,0,254.87-114.366,254.928-254.925A253.4,253.4,0,0,0,437.4,73.533" transform="translate(0 1.23)" fill-rule="evenodd"/>
</svg>
